<svg width="16" height="17" viewBox="0 0 16 17" fill="none" xmlns="http://www.w3.org/2000/svg">
<path fill-rule="evenodd" clip-rule="evenodd" d="M2 3.00281C2 2.45052 2.44772 2.00281 3 2.00281H13C13.5523 2.00281 14 2.45052 14 3.00281V13.0028C14 13.5551 13.5523 14.0028 13 14.0028H3C2.44772 14.0028 2 13.5551 2 13.0028V3.00281ZM13 3.00281H3V13.0028H13V3.00281Z" fill="#656565"/>
<path fill-rule="evenodd" clip-rule="evenodd" d="M11 1.00281C11.2761 1.00281 11.5 1.22667 11.5 1.50281V3.50281C11.5 3.77895 11.2761 4.00281 11 4.00281C10.7239 4.00281 10.5 3.77895 10.5 3.50281V1.50281C10.5 1.22667 10.7239 1.00281 11 1.00281Z" fill="#656565"/>
<path fill-rule="evenodd" clip-rule="evenodd" d="M5 1.00281C5.27614 1.00281 5.5 1.22667 5.5 1.50281V3.50281C5.5 3.77895 5.27614 4.00281 5 4.00281C4.72386 4.00281 4.5 3.77895 4.5 3.50281V1.50281C4.5 1.22667 4.72386 1.00281 5 1.00281Z" fill="#656565"/>
<path fill-rule="evenodd" clip-rule="evenodd" d="M2 5.50281C2 5.22667 2.22386 5.00281 2.5 5.00281H13.5C13.7761 5.00281 14 5.22667 14 5.50281C14 5.77895 13.7761 6.00281 13.5 6.00281H2.5C2.22386 6.00281 2 5.77895 2 5.50281Z" fill="#656565"/>
</svg>
