<svg width="16" height="17" viewBox="0 0 16 17" fill="none" xmlns="http://www.w3.org/2000/svg">
<path fill-rule="evenodd" clip-rule="evenodd" d="M1.79289 2.7957C1.98043 2.60816 2.23478 2.50281 2.5 2.50281H13.5C13.7652 2.50281 14.0196 2.60816 14.2071 2.7957C14.3946 2.98324 14.5 3.23759 14.5 3.50281V10.5028C14.5 10.7789 14.2761 11.0028 14 11.0028C13.7239 11.0028 13.5 10.7789 13.5 10.5028V3.50281L2.5 3.50281L2.5 10.5028C2.5 10.7789 2.27614 11.0028 2 11.0028C1.72386 11.0028 1.5 10.7789 1.5 10.5028V3.50281C1.5 3.23759 1.60536 2.98324 1.79289 2.7957Z" fill="white"/>
<path fill-rule="evenodd" clip-rule="evenodd" d="M0.5 12.5028C0.5 12.2267 0.723858 12.0028 1 12.0028H15C15.2761 12.0028 15.5 12.2267 15.5 12.5028C15.5 12.7789 15.2761 13.0028 15 13.0028H1C0.723858 13.0028 0.5 12.7789 0.5 12.5028Z" fill="white"/>
<path fill-rule="evenodd" clip-rule="evenodd" d="M7 10.5028C7 10.2267 7.22386 10.0028 7.5 10.0028H11.5C11.7761 10.0028 12 10.2267 12 10.5028V12.5028C12 12.7789 11.7761 13.0028 11.5 13.0028C11.2239 13.0028 11 12.7789 11 12.5028V11.0028H8V12.5028C8 12.7789 7.77614 13.0028 7.5 13.0028C7.22386 13.0028 7 12.7789 7 12.5028V10.5028Z" fill="white"/>
</svg>
