<svg width="36" height="35" viewBox="0 0 36 35" fill="none" xmlns="http://www.w3.org/2000/svg">
<path d="M16.9608 2.42762C17.3451 1.52934 18.654 1.52933 19.0383 2.42762L22.4967 10.5117C22.6588 10.8904 23.0251 11.1492 23.4456 11.182L32.4224 11.8816C33.4199 11.9594 33.8244 13.1696 33.0644 13.8025L26.225 19.4985C25.9046 19.7653 25.7647 20.184 25.8626 20.5829L27.9521 29.0994C28.1843 30.0458 27.1254 30.7938 26.2714 30.2866L18.586 25.7228C18.226 25.509 17.7732 25.509 17.4132 25.7228L9.72774 30.2866C8.87375 30.7938 7.81484 30.0458 8.04703 29.0994L10.1366 20.5829C10.2345 20.184 10.0945 19.7653 9.77416 19.4985L2.93476 13.8025C2.17478 13.1696 2.57924 11.9594 3.57673 11.8816L12.5536 11.182C12.9741 11.1492 13.3404 10.8904 13.5024 10.5117L16.9608 2.42762Z" fill="white"/>
</svg>
