<svg width="86" height="17" viewBox="0 0 86 17" fill="none" xmlns="http://www.w3.org/2000/svg">
<path d="M5.12285 8.87792V12.9897H0.181885V0.185183C3.5316 0.185183 6.84896 0.168423 10.1501 0.185183C10.5385 0.185183 10.9269 0.185183 11.3152 0.241049C11.6874 0.280155 12.0542 0.330435 12.4264 0.40306C12.777 0.475686 13.4135 0.587418 14.1202 1.19077C15.3176 2.22988 15.3878 3.8053 15.3878 4.31368C15.3878 4.97289 15.2098 7.1796 13.3758 8.24105C12.7231 8.60418 12.0704 8.69915 11.8061 8.75502C10.997 8.82764 10.1825 8.90027 9.33562 8.90027C8.91488 8.90027 8.47257 8.88351 8.04644 8.88351H5.12285V8.87792ZM5.13904 5.71591L8.58045 5.64328C9.14683 5.60418 9.63769 5.57066 9.97212 5.07904C10.0422 4.96731 10.1987 4.74943 10.1987 4.41982C10.1987 4.27457 10.1825 4.05669 9.97212 3.78295C9.62151 3.26898 9.14144 3.2187 8.59664 3.16284H5.13904V5.71591Z" fill="white"/>
<path d="M20.6956 7.4686C20.6956 8.14457 20.6956 8.78145 21.1379 9.27865C21.5587 9.75351 22.0927 9.82614 22.6914 9.82614C22.8478 9.82614 23.398 9.82614 23.8565 9.56916C24.5955 9.16692 24.6333 8.5077 24.6495 7.70882V3.12223H29.0942V12.9882H24.6495V12.1837C24.3312 12.3457 24.0345 12.5133 23.7325 12.6418C23.1661 12.9155 22.357 13.2451 20.9653 13.2451C18.4786 13.2451 17.1193 12.1111 16.6608 11.1446C16.3588 10.5245 16.3264 9.77586 16.2725 9.04402V3.10547H20.701V7.4686H20.6956Z" fill="white"/>
<path d="M35.3835 3.08856L35.3997 3.54666C36.6511 3.12766 37.7623 2.74219 39.1216 2.74219C39.4722 2.74219 39.8282 2.78129 40.1789 2.79805C40.4593 2.85392 40.7614 2.90979 41.0419 2.98241C41.5166 3.09414 42.5792 3.36789 43.5286 4.35113C44.8178 5.68632 44.9418 7.31202 44.9418 7.988C44.9418 8.33437 44.9095 9.1947 44.4995 10.0886C43.8091 11.6416 42.261 12.7925 40.7075 13.1779C40.0008 13.3623 39.51 13.34 39.2079 13.34C37.5304 13.34 36.8993 13.1388 35.3781 12.5355V16.0048H30.9172V3.08856H35.3835ZM35.5615 8.988C36.02 9.86509 36.937 10.2673 37.8702 10.2673C38.2747 10.2673 39.4776 10.1779 40.1465 9.06062C40.2544 8.89861 40.4486 8.5299 40.4486 8.02152C40.4486 7.70867 40.3784 7.43492 40.2544 7.14442C39.8336 6.21146 38.8627 5.70308 37.8756 5.70308C37.4009 5.71984 37.0827 5.81481 36.9047 5.88744C36.0955 6.20029 35.3889 6.94889 35.2972 7.82599C35.281 8.20029 35.3673 8.64163 35.5615 8.988Z" fill="white"/>
<path d="M50.816 3.08939V12.9888H46.3174V3.08939H50.816ZM50.816 0V2.28492H46.3713V0H50.816Z" fill="white"/>
<path d="M57.7473 3.08948H59.3548V5.84926H57.715V9.30177C57.7527 9.63138 57.7851 9.93864 58.0332 10.1789C58.1897 10.3241 58.3515 10.3632 58.5295 10.38H59.3386V12.9945H56.5013C56.2532 12.9945 56.0051 12.9945 55.7408 12.9778C55.0503 12.9219 54.2574 12.7208 53.8205 12.19C53.2541 11.5141 53.2541 10.4191 53.2541 9.542V5.85485H51.7222V3.08948H53.2379V0.162109H57.7527V3.08948H57.7473Z" fill="white"/>
<path d="M65.1913 3.08983V3.7267C65.79 3.34123 66.4804 2.84961 68.0501 2.84961C68.3522 2.84961 69.1775 2.84961 69.9218 3.34123C71.2812 4.25184 71.265 6.08425 71.2272 7.48648H67.3111C67.3489 6.95575 67.3651 6.49765 66.9389 6.15129C66.6746 5.93341 66.4103 5.8943 66.2863 5.8943C66.0759 5.8943 65.8655 5.98369 65.7037 6.09542C65.229 6.45855 65.1913 6.95575 65.1589 7.52V12.9837H60.698V3.08983H65.1913Z" fill="white"/>
<path d="M76.2655 9.13411C76.492 9.53634 76.6538 9.77098 76.7779 9.92182C77.3928 10.6146 78.504 10.6146 79.4048 10.6146C80.1816 10.6146 80.4621 10.4861 81.1147 10.0503H85.7914C85.6512 10.4134 85.4731 10.9106 84.8582 11.5308C84.1192 12.2626 83.3047 12.5699 82.9865 12.6984C82.5657 12.8436 82.1558 12.9721 81.7512 13.0838C80.6562 13.3408 79.7069 13.3743 77.463 13.3017C77.0746 13.2458 76.6862 13.2123 76.2978 13.1173C75.1327 12.8827 73.8813 12.3296 73.0182 11.4525C72.8241 11.2347 72.4357 10.8157 72.1174 10.1174C71.961 9.77098 71.6589 8.98327 71.6589 7.96093C71.6589 7.1397 71.8693 5.07266 73.8274 3.81568C74.1995 3.58104 74.5502 3.4302 75.3593 3.12294C76.0281 2.96093 76.7509 2.7207 78.1804 2.7207C78.6227 2.7207 79.0434 2.75981 79.4857 2.77657C80.8612 2.86595 81.3898 2.97769 82.7114 3.45255C83.0135 3.5978 83.3101 3.7654 83.596 3.94417C84.4051 4.47489 85.0254 5.29612 85.3761 6.22908C85.7806 7.25143 85.8184 8.03914 85.8184 9.13411H76.2655V9.13411ZM81.3629 6.74305C81.2064 6.35757 81.0446 6.08383 80.7264 5.83243C80.3542 5.55869 79.8957 5.34081 78.9625 5.34081C78.0995 5.34081 77.6032 5.4302 77.2364 5.5978C76.8157 5.79892 76.5999 6.00003 76.163 6.7654L81.3629 6.74305Z" fill="white"/>
</svg>
