<svg width="16" height="17" viewBox="0 0 16 17" fill="none" xmlns="http://www.w3.org/2000/svg">
<path fill-rule="evenodd" clip-rule="evenodd" d="M14.8536 3.14925C15.0488 3.34452 15.0488 3.6611 14.8536 3.85636L8.85355 9.85636C8.65829 10.0516 8.34171 10.0516 8.14645 9.85636L6 7.70991L1.85355 11.8564C1.65829 12.0516 1.34171 12.0516 1.14645 11.8564C0.951184 11.6611 0.951184 11.3445 1.14645 11.1493L5.64645 6.64925C5.84171 6.45399 6.15829 6.45399 6.35355 6.64925L8.5 8.7957L14.1464 3.14925C14.3417 2.95399 14.6583 2.95399 14.8536 3.14925Z" fill="#656565"/>
<path fill-rule="evenodd" clip-rule="evenodd" d="M10 3.50281C10 3.22667 10.2239 3.00281 10.5 3.00281H14.5C14.7761 3.00281 15 3.22667 15 3.50281V7.50281C15 7.77895 14.7761 8.00281 14.5 8.00281C14.2239 8.00281 14 7.77895 14 7.50281V4.00281H10.5C10.2239 4.00281 10 3.77895 10 3.50281Z" fill="#656565"/>
</svg>
