<svg width="16" height="17" viewBox="0 0 16 17" fill="none" xmlns="http://www.w3.org/2000/svg">
<path fill-rule="evenodd" clip-rule="evenodd" d="M1.5 5.00281C1.5 4.45052 1.94772 4.00281 2.5 4.00281H13.5C14.0523 4.00281 14.5 4.45052 14.5 5.00281V13.0028C14.5 13.5551 14.0523 14.0028 13.5 14.0028H2.5C1.94772 14.0028 1.5 13.5551 1.5 13.0028V5.00281ZM13.5 5.00281H2.5V13.0028H13.5V5.00281Z" fill="#656565"/>
<path fill-rule="evenodd" clip-rule="evenodd" d="M5.43934 2.44215C5.72064 2.16084 6.10218 2.00281 6.5 2.00281H9.5C9.89782 2.00281 10.2794 2.16084 10.5607 2.44215C10.842 2.72345 11 3.10498 11 3.50281V4.50281C11 4.77895 10.7761 5.00281 10.5 5.00281C10.2239 5.00281 10 4.77895 10 4.50281V3.50281C10 3.3702 9.94732 3.24302 9.85355 3.14925C9.75979 3.05549 9.63261 3.00281 9.5 3.00281H6.5C6.36739 3.00281 6.24022 3.05549 6.14645 3.14925C6.05268 3.24302 6 3.3702 6 3.50281V4.50281C6 4.77895 5.77614 5.00281 5.5 5.00281C5.22386 5.00281 5 4.77895 5 4.50281V3.50281C5 3.10498 5.15804 2.72345 5.43934 2.44215Z" fill="#656565"/>
<path fill-rule="evenodd" clip-rule="evenodd" d="M14.433 7.64679C14.5713 7.88581 14.4896 8.19168 14.2506 8.32996C12.3509 9.42903 10.1944 10.0062 7.99967 10.0029C5.80536 10.0062 3.64918 9.42922 1.74973 8.33052C1.5107 8.19225 1.42901 7.88639 1.56727 7.64735C1.70554 7.40832 2.0114 7.32663 2.25044 7.4649C3.99746 8.47544 5.98065 9.00603 7.99889 9.00286H8.00046C10.019 9.00603 12.0026 8.47526 13.7498 7.46439C13.9888 7.3261 14.2947 7.40777 14.433 7.64679Z" fill="#656565"/>
<path fill-rule="evenodd" clip-rule="evenodd" d="M6.75 7.50281C6.75 7.22667 6.97386 7.00281 7.25 7.00281H8.75C9.02614 7.00281 9.25 7.22667 9.25 7.50281C9.25 7.77895 9.02614 8.00281 8.75 8.00281H7.25C6.97386 8.00281 6.75 7.77895 6.75 7.50281Z" fill="#656565"/>
</svg>
