<svg width="24" height="24" viewBox="0 0 24 24" fill="none" xmlns="http://www.w3.org/2000/svg">
<g clip-path="url(#clip0_626_5310)">
<path d="M21.6969 2.30601C20.2107 0.820096 18.2332 0 16.1298 0C14.0265 0 12.049 0.820096 10.5628 2.30601C9.0746 3.79193 8.25639 5.76909 8.25639 7.87211C8.25639 9.97513 9.0746 11.9523 10.5628 13.4382C12.049 14.9241 14.0265 15.7442 16.1298 15.7442C18.2332 15.7442 20.2087 14.9262 21.6969 13.4382C24.7667 10.3689 24.7667 5.37529 21.6969 2.30601ZM20.0686 11.8102C19.0169 12.8617 17.618 13.4402 16.1298 13.4402C14.6416 13.4402 13.2428 12.8617 12.1911 11.8102C11.1394 10.7587 10.5587 9.36006 10.5587 7.87211C10.5587 6.38417 11.1374 4.98757 12.1911 3.93403C13.2428 2.88252 14.6416 2.30398 16.1298 2.30398C17.618 2.30398 19.0169 2.88252 20.0686 3.93403C22.239 6.10606 22.239 9.64019 20.0686 11.8102ZM8.87969 13.1764L0.677341 20.9896C0.652978 21.014 0.622523 21.0424 0.60019 21.0688C-0.142894 21.8483 -0.205833 22.983 0.460101 23.6062C1.12603 24.2274 2.26705 24.1015 3.01014 23.322L10.8267 15.1231C10.4491 14.8673 10.0918 14.575 9.76083 14.2441C9.42787 13.9112 9.13551 13.5539 8.87969 13.1764ZM12.4063 6.98909C11.919 6.98909 11.5231 7.38493 11.5231 7.87211C11.5231 8.3593 11.919 8.75514 12.4063 8.75514H19.8473C20.3346 8.75514 20.7305 8.3593 20.7305 7.87211C20.7305 7.38493 20.3346 6.98909 19.8473 6.98909H12.4063Z" fill="#656565"/>
</g>
<defs>
<clipPath id="clip0_626_5310">
<rect width="24" height="24" fill="white"/>
</clipPath>
</defs>
</svg>
